<svg xmlns="http://www.w3.org/2000/svg" xmlns:xlink="http://www.w3.org/1999/xlink" width="500" zoomAndPan="magnify" viewBox="0 0 375 374.999991" height="500" preserveAspectRatio="xMidYMid meet" version="1.0"><defs><g/><clipPath id="26fa63c90c"><path d="M 27.523438 187.5 L 51.113281 187.5 L 51.113281 199.625 L 27.523438 199.625 Z M 27.523438 187.5 " clip-rule="nonzero"/></clipPath><clipPath id="a9bfbc41f0"><path d="M 29.023438 187.5 L 49.570312 187.5 C 50.398438 187.5 51.070312 188.171875 51.070312 189 L 51.070312 198.125 C 51.070312 198.953125 50.398438 199.625 49.570312 199.625 L 29.023438 199.625 C 28.195312 199.625 27.523438 198.953125 27.523438 198.125 L 27.523438 189 C 27.523438 188.171875 28.195312 187.5 29.023438 187.5 Z M 29.023438 187.5 " clip-rule="nonzero"/></clipPath><clipPath id="41a8e7ba5d"><path d="M 329.441406 193.5625 L 347.476562 193.5625 L 347.476562 211.597656 L 329.441406 211.597656 Z M 329.441406 193.5625 " clip-rule="nonzero"/></clipPath><clipPath id="1439a783b6"><path d="M 338.460938 193.5625 C 333.480469 193.5625 329.441406 197.601562 329.441406 202.582031 C 329.441406 207.558594 333.480469 211.597656 338.460938 211.597656 C 343.441406 211.597656 347.476562 207.558594 347.476562 202.582031 C 347.476562 197.601562 343.441406 193.5625 338.460938 193.5625 Z M 338.460938 193.5625 " clip-rule="nonzero"/></clipPath></defs><rect x="-37.5" width="450" fill="#ffffff" y="-37.499999" height="449.999989" fill-opacity="1"/><rect x="-37.5" width="450" fill="#ffffff" y="-37.499999" height="449.999989" fill-opacity="1"/><g clip-path="url(#26fa63c90c)"><g clip-path="url(#a9bfbc41f0)"><path fill="#000000" d="M 27.523438 187.5 L 51.066406 187.5 L 51.066406 199.625 L 27.523438 199.625 Z M 27.523438 187.5 " fill-opacity="1" fill-rule="nonzero"/></g></g><g clip-path="url(#41a8e7ba5d)"><g clip-path="url(#1439a783b6)"><path fill="#000000" d="M 329.441406 193.5625 L 347.476562 193.5625 L 347.476562 211.597656 L 329.441406 211.597656 Z M 329.441406 193.5625 " fill-opacity="1" fill-rule="nonzero"/></g></g><g fill="#000000" fill-opacity="1"><g transform="translate(57.566423, 209.82871)"><g><path d="M 38.671875 0 L 18.921875 -22.828125 L 18.921875 0 L 5.0625 0 L 5.0625 -47.015625 L 18.25 -47.015625 L 37.984375 -23.84375 L 37.984375 -47.015625 L 51.859375 -47.015625 L 51.859375 0 Z M 38.671875 0 "/></g></g></g><g fill="#000000" fill-opacity="1"><g transform="translate(107.510923, 209.82871)"><g><path d="M 21.9375 -36.890625 C 27.445312 -36.890625 31.929688 -35.96875 35.390625 -34.125 C 38.859375 -32.28125 40.59375 -29.285156 40.59375 -25.140625 L 40.59375 -11.0625 C 40.59375 -10.289062 40.773438 -9.65625 41.140625 -9.15625 C 41.503906 -8.65625 42.046875 -8.40625 42.765625 -8.40625 L 45.234375 -8.40625 L 45.234375 -0.546875 C 45.097656 -0.453125 44.742188 -0.300781 44.171875 -0.09375 C 43.597656 0.101562 42.785156 0.300781 41.734375 0.5 C 40.691406 0.707031 39.488281 0.8125 38.125 0.8125 C 35.488281 0.8125 33.316406 0.414062 31.609375 -0.375 C 29.898438 -1.175781 28.722656 -2.28125 28.078125 -3.6875 C 26.347656 -2.320312 24.410156 -1.226562 22.265625 -0.40625 C 20.128906 0.40625 17.628906 0.8125 14.765625 0.8125 C 6.285156 0.8125 2.046875 -2.554688 2.046875 -9.296875 C 2.046875 -12.796875 2.988281 -15.46875 4.875 -17.3125 C 6.769531 -19.164062 9.492188 -20.429688 13.046875 -21.109375 C 16.597656 -21.796875 21.242188 -22.140625 26.984375 -22.140625 L 26.984375 -23.921875 C 26.984375 -25.328125 26.492188 -26.394531 25.515625 -27.125 C 24.535156 -27.851562 23.273438 -28.21875 21.734375 -28.21875 C 20.316406 -28.21875 19.09375 -27.96875 18.0625 -27.46875 C 17.039062 -26.96875 16.53125 -26.171875 16.53125 -25.078125 L 16.53125 -24.796875 L 3.140625 -24.796875 C 3.097656 -25.023438 3.078125 -25.347656 3.078125 -25.765625 C 3.078125 -29.179688 4.703125 -31.890625 7.953125 -33.890625 C 11.210938 -35.890625 15.875 -36.890625 21.9375 -36.890625 Z M 26.984375 -15.71875 C 23.117188 -15.71875 20.257812 -15.296875 18.40625 -14.453125 C 16.5625 -13.609375 15.640625 -12.476562 15.640625 -11.0625 C 15.640625 -8.789062 17.191406 -7.65625 20.296875 -7.65625 C 22.066406 -7.65625 23.625 -8.128906 24.96875 -9.078125 C 26.3125 -10.035156 26.984375 -11.222656 26.984375 -12.640625 Z M 26.984375 -15.71875 "/></g></g></g><g fill="#000000" fill-opacity="1"><g transform="translate(146.113444, 209.82871)"><g><path d="M 21.25 -36.890625 C 26.082031 -36.890625 30.171875 -35.941406 33.515625 -34.046875 C 36.859375 -32.160156 38.53125 -29.238281 38.53125 -25.28125 L 25.890625 -25.28125 C 25.890625 -26.601562 25.300781 -27.535156 24.125 -28.078125 C 23.300781 -28.535156 22.273438 -28.765625 21.046875 -28.765625 C 17.765625 -28.765625 16.125 -27.988281 16.125 -26.4375 C 16.125 -25.570312 16.691406 -24.957031 17.828125 -24.59375 C 18.972656 -24.226562 20.84375 -23.84375 23.4375 -23.4375 C 26.625 -22.976562 29.285156 -22.441406 31.421875 -21.828125 C 33.566406 -21.210938 35.4375 -20.117188 37.03125 -18.546875 C 38.625 -16.972656 39.421875 -14.773438 39.421875 -11.953125 C 39.421875 -7.359375 37.703125 -4.082031 34.265625 -2.125 C 30.828125 -0.164062 26.328125 0.8125 20.765625 0.8125 C 17.578125 0.8125 14.570312 0.367188 11.75 -0.515625 C 8.925781 -1.398438 6.625 -2.773438 4.84375 -4.640625 C 3.070312 -6.515625 2.1875 -8.882812 2.1875 -11.75 L 14.828125 -11.75 L 14.828125 -11.484375 C 14.867188 -9.929688 15.515625 -8.847656 16.765625 -8.234375 C 18.023438 -7.617188 19.359375 -7.3125 20.765625 -7.3125 C 24.546875 -7.3125 26.4375 -8.195312 26.4375 -9.96875 C 26.4375 -10.882812 25.84375 -11.546875 24.65625 -11.953125 C 23.476562 -12.367188 21.546875 -12.800781 18.859375 -13.25 C 15.617188 -13.800781 12.960938 -14.394531 10.890625 -15.03125 C 8.828125 -15.664062 7.019531 -16.742188 5.46875 -18.265625 C 3.914062 -19.796875 3.140625 -21.929688 3.140625 -24.671875 C 3.140625 -29.085938 4.8125 -32.226562 8.15625 -34.09375 C 11.507812 -35.957031 15.875 -36.890625 21.25 -36.890625 Z M 21.25 -36.890625 "/></g></g></g><g fill="#000000" fill-opacity="1"><g transform="translate(180.889763, 209.82871)"><g><path d="M 22.75 -36.890625 C 29.351562 -36.890625 34.394531 -35.34375 37.875 -32.25 C 41.363281 -29.15625 43.109375 -24.414062 43.109375 -18.03125 L 43.109375 -15.71875 L 16.0625 -15.71875 C 16.0625 -13.125 16.640625 -11.164062 17.796875 -9.84375 C 18.960938 -8.519531 20.796875 -7.859375 23.296875 -7.859375 C 25.578125 -7.859375 27.25 -8.335938 28.3125 -9.296875 C 29.382812 -10.253906 29.921875 -11.53125 29.921875 -13.125 L 43.109375 -13.125 C 43.109375 -8.75 41.445312 -5.332031 38.125 -2.875 C 34.800781 -0.414062 29.953125 0.8125 23.578125 0.8125 C 16.878906 0.8125 11.679688 -0.742188 7.984375 -3.859375 C 4.296875 -6.984375 2.453125 -11.707031 2.453125 -18.03125 C 2.453125 -24.226562 4.25 -28.921875 7.84375 -32.109375 C 11.445312 -35.296875 16.414062 -36.890625 22.75 -36.890625 Z M 23.296875 -28.21875 C 19.015625 -28.21875 16.625 -26.191406 16.125 -22.140625 L 29.375 -22.140625 C 29.375 -24.003906 28.835938 -25.484375 27.765625 -26.578125 C 26.703125 -27.671875 25.210938 -28.21875 23.296875 -28.21875 Z M 23.296875 -28.21875 "/></g></g></g><g fill="#000000" fill-opacity="1"><g transform="translate(219.492293, 209.82871)"><g><path d="M 22.75 -36.890625 C 29.351562 -36.890625 34.394531 -35.34375 37.875 -32.25 C 41.363281 -29.15625 43.109375 -24.414062 43.109375 -18.03125 L 43.109375 -15.71875 L 16.0625 -15.71875 C 16.0625 -13.125 16.640625 -11.164062 17.796875 -9.84375 C 18.960938 -8.519531 20.796875 -7.859375 23.296875 -7.859375 C 25.578125 -7.859375 27.25 -8.335938 28.3125 -9.296875 C 29.382812 -10.253906 29.921875 -11.53125 29.921875 -13.125 L 43.109375 -13.125 C 43.109375 -8.75 41.445312 -5.332031 38.125 -2.875 C 34.800781 -0.414062 29.953125 0.8125 23.578125 0.8125 C 16.878906 0.8125 11.679688 -0.742188 7.984375 -3.859375 C 4.296875 -6.984375 2.453125 -11.707031 2.453125 -18.03125 C 2.453125 -24.226562 4.25 -28.921875 7.84375 -32.109375 C 11.445312 -35.296875 16.414062 -36.890625 22.75 -36.890625 Z M 23.296875 -28.21875 C 19.015625 -28.21875 16.625 -26.191406 16.125 -22.140625 L 29.375 -22.140625 C 29.375 -24.003906 28.835938 -25.484375 27.765625 -26.578125 C 26.703125 -27.671875 25.210938 -28.21875 23.296875 -28.21875 Z M 23.296875 -28.21875 "/></g></g></g><g fill="#000000" fill-opacity="1"><g transform="translate(258.094813, 209.82871)"><g><path d="M 26.03125 -36.96875 C 27.082031 -36.96875 28.015625 -36.84375 28.828125 -36.59375 C 29.648438 -36.34375 30.0625 -36.191406 30.0625 -36.140625 L 30.0625 -24.734375 L 25.6875 -24.734375 C 22.863281 -24.734375 20.828125 -24.003906 19.578125 -22.546875 C 18.328125 -21.085938 17.703125 -18.925781 17.703125 -16.0625 L 17.703125 0 L 4.09375 0 L 4.09375 -36.078125 L 15.234375 -36.078125 L 16.125 -30.609375 C 16.945312 -32.703125 18.242188 -34.285156 20.015625 -35.359375 C 21.796875 -36.429688 23.800781 -36.96875 26.03125 -36.96875 Z M 26.03125 -36.96875 "/></g></g></g><g fill="#000000" fill-opacity="1"><g transform="translate(281.460817, 209.82871)"><g><path d="M 21.25 -36.890625 C 26.082031 -36.890625 30.171875 -35.941406 33.515625 -34.046875 C 36.859375 -32.160156 38.53125 -29.238281 38.53125 -25.28125 L 25.890625 -25.28125 C 25.890625 -26.601562 25.300781 -27.535156 24.125 -28.078125 C 23.300781 -28.535156 22.273438 -28.765625 21.046875 -28.765625 C 17.765625 -28.765625 16.125 -27.988281 16.125 -26.4375 C 16.125 -25.570312 16.691406 -24.957031 17.828125 -24.59375 C 18.972656 -24.226562 20.84375 -23.84375 23.4375 -23.4375 C 26.625 -22.976562 29.285156 -22.441406 31.421875 -21.828125 C 33.566406 -21.210938 35.4375 -20.117188 37.03125 -18.546875 C 38.625 -16.972656 39.421875 -14.773438 39.421875 -11.953125 C 39.421875 -7.359375 37.703125 -4.082031 34.265625 -2.125 C 30.828125 -0.164062 26.328125 0.8125 20.765625 0.8125 C 17.578125 0.8125 14.570312 0.367188 11.75 -0.515625 C 8.925781 -1.398438 6.625 -2.773438 4.84375 -4.640625 C 3.070312 -6.515625 2.1875 -8.882812 2.1875 -11.75 L 14.828125 -11.75 L 14.828125 -11.484375 C 14.867188 -9.929688 15.515625 -8.847656 16.765625 -8.234375 C 18.023438 -7.617188 19.359375 -7.3125 20.765625 -7.3125 C 24.546875 -7.3125 26.4375 -8.195312 26.4375 -9.96875 C 26.4375 -10.882812 25.84375 -11.546875 24.65625 -11.953125 C 23.476562 -12.367188 21.546875 -12.800781 18.859375 -13.25 C 15.617188 -13.800781 12.960938 -14.394531 10.890625 -15.03125 C 8.828125 -15.664062 7.019531 -16.742188 5.46875 -18.265625 C 3.914062 -19.796875 3.140625 -21.929688 3.140625 -24.671875 C 3.140625 -29.085938 4.8125 -32.226562 8.15625 -34.09375 C 11.507812 -35.957031 15.875 -36.890625 21.25 -36.890625 Z M 21.25 -36.890625 "/></g></g></g></svg>